<svg width="46" height="46" viewBox="0 0 46 46" fill="none" xmlns="http://www.w3.org/2000/svg">
<path d="M31.235 24.5049C34.5003 22.3365 36.6589 18.6296 36.6589 14.4263C36.6589 7.7593 31.235 2.33398 24.568 2.33398C17.9009 2.33398 12.477 7.7593 12.477 14.4263C12.477 18.6282 14.6342 22.3351 17.8981 24.5021C14.765 25.381 12.0355 27.3709 10.2509 30.2073C9.87828 30.7993 10.0569 31.5812 10.6475 31.9524C11.2395 32.3251 12.0214 32.1465 12.3927 31.5559C14.3755 28.4045 17.7913 26.5229 21.5319 26.5229H27.6069C33.5848 26.5229 38.4491 31.3857 38.4491 37.3637V39.0934C38.4491 39.7796 37.9723 40.3688 37.3072 40.494C33.1658 41.2998 28.8809 41.7076 24.5694 41.7076H23.9366C23.2377 41.7076 22.6709 42.2743 22.6709 42.9732C22.6709 43.6721 23.2377 44.2388 23.9366 44.2388H24.5694C29.0427 44.2388 33.4906 43.8141 37.7839 42.9788C39.6359 42.6287 40.9789 40.9946 40.9789 39.0905V37.3609C40.9789 31.2507 36.8488 26.0926 31.235 24.5049ZM15.0069 14.4263C15.0069 9.1543 19.2959 4.86664 24.568 4.86664C29.84 4.86664 34.1277 9.1543 34.1277 14.4263C34.1277 19.6984 29.8386 23.9874 24.568 23.9874C19.2959 23.9874 15.0069 19.6984 15.0069 14.4263Z" fill="url(#paint0_linear_838_7067)"/>
<path d="M18.5914 38.5997H9.34391L10.2931 37.6505C10.7881 37.1555 10.7881 36.3539 10.2931 35.8603C9.79813 35.3668 8.99798 35.3653 8.50438 35.8603L5.39376 38.971C4.89876 39.466 4.89876 40.2675 5.39376 40.7611L8.50438 43.8718C8.75048 44.1193 9.07391 44.2416 9.39735 44.2416C9.72079 44.2416 10.0442 44.1178 10.2917 43.8703C10.7867 43.3753 10.7867 42.5738 10.2917 42.0802L9.34251 41.131H18.5914C19.2903 41.131 19.857 40.5643 19.857 39.8653C19.857 39.1664 19.2903 38.5997 18.5914 38.5997Z" fill="url(#paint1_linear_838_7067)"/>
<defs>
<linearGradient id="paint0_linear_838_7067" x1="25.5176" y1="2.33398" x2="25.5176" y2="44.2388" gradientUnits="userSpaceOnUse">
<stop stop-color="#2563EB"/>
<stop offset="1" stop-color="#1D4ED8"/>
</linearGradient>
<linearGradient id="paint1_linear_838_7067" x1="12.4398" y1="35.4896" x2="12.4398" y2="44.2416" gradientUnits="userSpaceOnUse">
<stop stop-color="#2563EB"/>
<stop offset="1" stop-color="#1D4ED8"/>
</linearGradient>
</defs>
</svg>
