<svg width="46" height="46" viewBox="0 0 46 46" fill="none" xmlns="http://www.w3.org/2000/svg">
<path d="M23 25.1636C22.5027 25.1636 22.0258 25.3611 21.6742 25.7127C21.3225 26.0644 21.125 26.5413 21.125 27.0386V32.6636C21.125 33.1609 21.3225 33.6378 21.6742 33.9894C22.0258 34.341 22.5027 34.5386 23 34.5386C23.4973 34.5386 23.9742 34.341 24.3258 33.9894C24.6775 33.6378 24.875 33.1609 24.875 32.6636V27.0386C24.875 26.5413 24.6775 26.0644 24.3258 25.7127C23.9742 25.3611 23.4973 25.1636 23 25.1636ZM32.375 17.6636V13.9136C32.375 11.4272 31.3873 9.0426 29.6291 7.28445C27.871 5.52629 25.4864 4.53857 23 4.53857C20.5136 4.53857 18.129 5.52629 16.3709 7.28445C14.6127 9.0426 13.625 11.4272 13.625 13.9136V17.6636C12.1332 17.6636 10.7024 18.2562 9.64752 19.3111C8.59263 20.366 8 21.7967 8 23.2886V36.4136C8 37.9054 8.59263 39.3362 9.64752 40.3911C10.7024 41.4459 12.1332 42.0386 13.625 42.0386H32.375C33.8668 42.0386 35.2976 41.4459 36.3525 40.3911C37.4074 39.3362 38 37.9054 38 36.4136V23.2886C38 21.7967 37.4074 20.366 36.3525 19.3111C35.2976 18.2562 33.8668 17.6636 32.375 17.6636ZM17.375 13.9136C17.375 12.4217 17.9676 10.991 19.0225 9.9361C20.0774 8.88121 21.5082 8.28857 23 8.28857C24.4918 8.28857 25.9226 8.88121 26.9775 9.9361C28.0324 10.991 28.625 12.4217 28.625 13.9136V17.6636H17.375V13.9136ZM34.25 36.4136C34.25 36.9109 34.0525 37.3878 33.7008 37.7394C33.3492 38.091 32.8723 38.2886 32.375 38.2886H13.625C13.1277 38.2886 12.6508 38.091 12.2992 37.7394C11.9475 37.3878 11.75 36.9109 11.75 36.4136V23.2886C11.75 22.7913 11.9475 22.3144 12.2992 21.9627C12.6508 21.6111 13.1277 21.4136 13.625 21.4136H32.375C32.8723 21.4136 33.3492 21.6111 33.7008 21.9627C34.0525 22.3144 34.25 22.7913 34.25 23.2886V36.4136Z" fill="url(#paint0_linear_838_7090)"/>
<defs>
<linearGradient id="paint0_linear_838_7090" x1="23" y1="4.53857" x2="23" y2="42.0386" gradientUnits="userSpaceOnUse">
<stop stop-color="#2563EB"/>
<stop offset="1" stop-color="#1D4ED8"/>
</linearGradient>
</defs>
</svg>
