<svg width="21" height="16" viewBox="0 0 21 16" fill="none" xmlns="http://www.w3.org/2000/svg">
<g clip-path="url(#clip0_1525_10067)">
<path d="M10.1875 0C10.7406 0 11.1875 0.446875 11.1875 1V3H14.9375C16.1812 3 17.1875 4.00625 17.1875 5.25V13.75C17.1875 14.9937 16.1812 16 14.9375 16H5.4375C4.19375 16 3.1875 14.9937 3.1875 13.75V5.25C3.1875 4.00625 4.19375 3 5.4375 3H9.1875V1C9.1875 0.446875 9.63437 0 10.1875 0ZM6.6875 12C6.4125 12 6.1875 12.225 6.1875 12.5C6.1875 12.775 6.4125 13 6.6875 13H7.6875C7.9625 13 8.1875 12.775 8.1875 12.5C8.1875 12.225 7.9625 12 7.6875 12H6.6875ZM9.6875 12C9.4125 12 9.1875 12.225 9.1875 12.5C9.1875 12.775 9.4125 13 9.6875 13H10.6875C10.9625 13 11.1875 12.775 11.1875 12.5C11.1875 12.225 10.9625 12 10.6875 12H9.6875ZM12.6875 12C12.4125 12 12.1875 12.225 12.1875 12.5C12.1875 12.775 12.4125 13 12.6875 13H13.6875C13.9625 13 14.1875 12.775 14.1875 12.5C14.1875 12.225 13.9625 12 13.6875 12H12.6875ZM8.4375 8C8.4375 7.66848 8.3058 7.35054 8.07138 7.11612C7.83696 6.8817 7.51902 6.75 7.1875 6.75C6.85598 6.75 6.53804 6.8817 6.30362 7.11612C6.0692 7.35054 5.9375 7.66848 5.9375 8C5.9375 8.33152 6.0692 8.64946 6.30362 8.88388C6.53804 9.1183 6.85598 9.25 7.1875 9.25C7.51902 9.25 7.83696 9.1183 8.07138 8.88388C8.3058 8.64946 8.4375 8.33152 8.4375 8ZM13.1875 9.25C13.519 9.25 13.837 9.1183 14.0714 8.88388C14.3058 8.64946 14.4375 8.33152 14.4375 8C14.4375 7.66848 14.3058 7.35054 14.0714 7.11612C13.837 6.8817 13.519 6.75 13.1875 6.75C12.856 6.75 12.538 6.8817 12.3036 7.11612C12.0692 7.35054 11.9375 7.66848 11.9375 8C11.9375 8.33152 12.0692 8.64946 12.3036 8.88388C12.538 9.1183 12.856 9.25 13.1875 9.25ZM1.6875 7H2.1875V13H1.6875C0.859375 13 0.1875 12.3281 0.1875 11.5V8.5C0.1875 7.67188 0.859375 7 1.6875 7ZM18.6875 7C19.5156 7 20.1875 7.67188 20.1875 8.5V11.5C20.1875 12.3281 19.5156 13 18.6875 13H18.1875V7H18.6875Z" fill="#3B82F6"/>
</g>
<defs>
<clipPath id="clip0_1525_10067">
<path d="M0.1875 0H20.1875V16H0.1875V0Z" fill="white"/>
</clipPath>
</defs>
</svg>
