<svg width="20" height="20" viewBox="0 0 20 20" fill="none" xmlns="http://www.w3.org/2000/svg">
<path d="M17.2412 17.4138H2.75842C1.61773 17.4138 0.689453 16.4855 0.689453 15.3448V7.06896C0.689453 5.92827 1.61773 5 2.75842 5H5.0198L5.23773 4.34551C5.37481 3.93343 5.63821 3.575 5.99053 3.32109C6.34286 3.06719 6.76621 2.93071 7.20049 2.93103H12.7984C13.6901 2.93103 14.4791 3.49931 14.7612 4.34551L14.9791 5H17.2412C18.3819 5 19.3101 5.92827 19.3101 7.06896V15.3448C19.3101 16.4855 18.3819 17.4138 17.2412 17.4138ZM2.75842 6.37931C2.57551 6.37931 2.40009 6.45197 2.27076 6.5813C2.14142 6.71064 2.06876 6.88605 2.06876 7.06896V15.3448C2.06876 15.5277 2.14142 15.7031 2.27076 15.8325C2.40009 15.9618 2.57551 16.0345 2.75842 16.0345H17.2412C17.4241 16.0345 17.5995 15.9618 17.7288 15.8325C17.8582 15.7031 17.9308 15.5277 17.9308 15.3448V7.06896C17.9308 6.88605 17.8582 6.71064 17.7288 6.5813C17.5995 6.45197 17.4241 6.37931 17.2412 6.37931H14.9798C14.3853 6.37931 13.8591 6 13.6715 5.43586L13.4543 4.78207C13.4084 4.64474 13.3206 4.5253 13.2031 4.44065C13.0857 4.356 12.9446 4.31041 12.7998 4.31034H7.20187C7.05701 4.3101 6.91578 4.35556 6.79826 4.44026C6.68075 4.52495 6.59296 4.64457 6.54738 4.78207L6.32807 5.43655C6.23684 5.7113 6.06131 5.9503 5.82643 6.11955C5.59156 6.2888 5.3093 6.3797 5.0198 6.37931H2.75842Z" fill="#667085"/>
<path d="M10.0001 15.3449C7.9091 15.3449 6.20703 13.6428 6.20703 11.5518C6.20703 9.46074 7.9091 7.75867 10.0001 7.75867C12.0912 7.75867 13.7932 9.46074 13.7932 11.5518C13.7932 13.6428 12.0912 15.3449 10.0001 15.3449ZM10.0001 9.13798C8.6691 9.13798 7.58634 10.2207 7.58634 11.5518C7.58634 12.8828 8.6691 13.9656 10.0001 13.9656C11.3312 13.9656 12.4139 12.8828 12.4139 11.5518C12.4139 10.2207 11.3312 9.13798 10.0001 9.13798Z" fill="#667085"/>
<path d="M14.1389 8.44828C14.5198 8.44828 14.8285 8.13951 14.8285 7.75862C14.8285 7.37774 14.5198 7.06897 14.1389 7.06897C13.758 7.06897 13.4492 7.37774 13.4492 7.75862C13.4492 8.13951 13.758 8.44828 14.1389 8.44828Z" fill="#667085"/>
<path d="M3.79337 3.27588H2.75889C2.66744 3.27588 2.57973 3.31221 2.51506 3.37688C2.45039 3.44154 2.41406 3.52925 2.41406 3.62071C2.41406 3.71216 2.45039 3.79987 2.51506 3.86454C2.57973 3.9292 2.66744 3.96553 2.75889 3.96553H3.79337C3.88483 3.96553 3.97254 3.9292 4.0372 3.86454C4.10187 3.79987 4.1382 3.71216 4.1382 3.62071C4.1382 3.52925 4.10187 3.44154 4.0372 3.37688C3.97254 3.31221 3.88483 3.27588 3.79337 3.27588Z" fill="#667085"/>
<path d="M3.7925 4.31034H2.75801C2.57511 4.31034 2.39969 4.23768 2.27035 4.10835C2.14102 3.97901 2.06836 3.80359 2.06836 3.62069C2.06836 3.43778 2.14102 3.26236 2.27035 3.13303C2.39969 3.00369 2.57511 2.93103 2.75801 2.93103H3.7925C3.97541 2.93103 4.15082 3.00369 4.28016 3.13303C4.40949 3.26236 4.48215 3.43778 4.48215 3.62069C4.48215 3.80359 4.40949 3.97901 4.28016 4.10835C4.15082 4.23768 3.97541 4.31034 3.7925 4.31034Z" fill="#667085"/>
</svg>
