<svg width="26" height="21" viewBox="0 0 26 21" fill="none" xmlns="http://www.w3.org/2000/svg">
<path d="M8.62494 14.25C13.1132 14.25 16.7499 11.1719 16.7499 7.375C16.7499 3.57812 13.1132 0.5 8.62494 0.5C4.13666 0.5 0.499939 3.57812 0.499939 7.375C0.499939 8.88281 1.07416 10.2773 2.04681 11.4141C1.9101 11.7812 1.70697 12.1055 1.49213 12.3789C1.30463 12.6211 1.11322 12.8086 0.972596 12.9375C0.902283 13 0.843689 13.0508 0.804627 13.082C0.785095 13.0977 0.76947 13.1094 0.761658 13.1133L0.753845 13.1211C0.539002 13.2812 0.445252 13.5625 0.531189 13.8164C0.617127 14.0703 0.855408 14.25 1.12494 14.25C1.9765 14.25 2.83588 14.0312 3.55072 13.7617C3.9101 13.625 4.24603 13.4727 4.539 13.3164C5.73822 13.9102 7.13275 14.25 8.62494 14.25ZM17.9999 7.375C17.9999 11.7617 14.1288 15.0664 9.54291 15.4609C10.4921 18.3672 13.6406 20.5 17.3749 20.5C18.8671 20.5 20.2617 20.1602 21.4648 19.5664C21.7578 19.7227 22.0898 19.875 22.4492 20.0117C23.164 20.2812 24.0234 20.5 24.8749 20.5C25.1445 20.5 25.3867 20.3242 25.4687 20.0664C25.5507 19.8086 25.4609 19.5273 25.2421 19.3672L25.2343 19.3594C25.2265 19.3516 25.2109 19.3438 25.1913 19.3281C25.1523 19.2969 25.0937 19.25 25.0234 19.1836C24.8828 19.0547 24.6913 18.8672 24.5038 18.625C24.289 18.3516 24.0859 18.0234 23.9492 17.6602C24.9218 16.5273 25.496 15.1328 25.496 13.6211C25.496 9.99609 22.1796 7.02344 17.9726 6.76562C17.9882 6.96484 17.996 7.16797 17.996 7.37109L17.9999 7.375Z" fill="#3B82F6"/>
</svg>
