<svg width="44" height="44" viewBox="0 0 44 44" fill="none" xmlns="http://www.w3.org/2000/svg">
<path d="M36.1423 17.0445C35.4878 9.812 29.3993 4.125 22 4.125C14.6007 4.125 8.51217 9.812 7.85767 17.0445C5.7365 17.4442 4.125 19.3032 4.125 21.538V26.1305C4.125 28.655 6.17833 30.7083 8.70283 30.7083H9.16667C10.9358 30.7083 12.375 29.2692 12.375 27.5V20.1667C12.375 18.9127 11.6453 17.8365 10.593 17.3085C11.1137 11.4693 16.027 6.875 22 6.875C27.973 6.875 32.8863 11.4693 33.407 17.3085C32.3565 17.8365 31.625 18.9127 31.625 20.1667V27.5C31.625 28.0958 31.7992 28.6477 32.0833 29.128C32.0723 29.1977 32.0412 29.2618 32.0412 29.3333C32.0412 33.6307 28.5468 37.125 24.2495 37.125H21.9982C21.2392 37.125 20.6232 37.741 20.6232 38.5C20.6232 39.259 21.2392 39.875 21.9982 39.875H24.2495C29.601 39.875 34.023 35.8655 34.694 30.6937C34.7417 30.6955 34.7857 30.7083 34.8333 30.7083H35.2972C37.8217 30.7083 39.875 28.655 39.875 26.1305V21.538C39.875 19.3032 38.2635 17.4442 36.1423 17.0445Z" fill="#549BFF"/>
<path d="M29.3333 11.4583H14.6667C11.8822 11.4583 9.625 13.7155 9.625 16.4999V29.3333C9.625 32.1177 11.8822 34.3749 14.6667 34.3749H29.3333C32.1178 34.3749 34.375 32.1177 34.375 29.3333V16.4999C34.375 13.7155 32.1178 11.4583 29.3333 11.4583Z" fill="#BAD7FF"/>
<path d="M18.334 23.3751C17.575 23.3751 16.959 22.7591 16.959 22.0001V20.1667C16.959 19.4077 17.575 18.7917 18.334 18.7917C19.093 18.7917 19.709 19.4077 19.709 20.1667V22.0001C19.709 22.7591 19.093 23.3751 18.334 23.3751ZM25.6673 18.7917C24.9083 18.7917 24.2923 19.4077 24.2923 20.1667V22.0001C24.2923 22.7591 24.9083 23.3751 25.6673 23.3751C26.4263 23.3751 27.0423 22.7591 27.0423 22.0001V20.1667C27.0423 19.4077 26.4263 18.7917 25.6673 18.7917ZM23.834 26.1251H20.1673C19.4083 26.1251 18.7923 26.7411 18.7923 27.5001C18.7923 28.2591 19.4083 28.8751 20.1673 28.8751H23.834C24.593 28.8751 25.209 28.2591 25.209 27.5001C25.209 26.7411 24.593 26.1251 23.834 26.1251Z" fill="#549BFF"/>
</svg>
