<svg width="21" height="21" viewBox="0 0 21 21" fill="none" xmlns="http://www.w3.org/2000/svg">
<g clip-path="url(#clip0_1525_10005)">
<path d="M7.09766 1.46084C6.79688 0.734279 6.00391 0.34756 5.24609 0.554592L1.80859 1.49209C1.12891 1.67959 0.65625 2.29678 0.65625 2.9999C0.65625 12.664 8.49219 20.4999 18.1562 20.4999C18.8594 20.4999 19.4766 20.0272 19.6641 19.3476L20.6016 15.9101C20.8086 15.1522 20.4219 14.3593 19.6953 14.0585L15.9453 12.496C15.3086 12.2304 14.5703 12.414 14.1367 12.9491L12.5586 14.8749C9.80859 13.5741 7.58203 11.3476 6.28125 8.59756L8.20703 7.02334C8.74219 6.58584 8.92578 5.85147 8.66016 5.21475L7.09766 1.46475V1.46084Z" fill="#9333EA"/>
</g>
<defs>
<clipPath id="clip0_1525_10005">
<path d="M0.65625 0.5H20.6562V20.5H0.65625V0.5Z" fill="white"/>
</clipPath>
</defs>
</svg>
