<svg width="20" height="21" viewBox="0 0 20 21" fill="none" xmlns="http://www.w3.org/2000/svg">
<g clip-path="url(#clip0_1525_10126)">
<path d="M10 20.5C12.6522 20.5 15.1957 19.4464 17.0711 17.5711C18.9464 15.6957 20 13.1522 20 10.5C20 7.84784 18.9464 5.3043 17.0711 3.42893C15.1957 1.55357 12.6522 0.5 10 0.5C7.34784 0.5 4.8043 1.55357 2.92893 3.42893C1.05357 5.3043 0 7.84784 0 10.5C0 13.1522 1.05357 15.6957 2.92893 17.5711C4.8043 19.4464 7.34784 20.5 10 20.5ZM6.63281 6.95703C6.94141 6.08594 7.76953 5.5 8.69531 5.5H10.9727C12.3359 5.5 13.4375 6.60547 13.4375 7.96484C13.4375 8.84766 12.9648 9.66406 12.1992 10.1055L10.9375 10.8281C10.9297 11.3359 10.5117 11.75 10 11.75C9.48047 11.75 9.0625 11.332 9.0625 10.8125V10.2852C9.0625 9.94922 9.24219 9.64062 9.53516 9.47266L11.2656 8.48047C11.4492 8.375 11.5625 8.17969 11.5625 7.96875C11.5625 7.64062 11.2969 7.37891 10.9727 7.37891H8.69531C8.5625 7.37891 8.44531 7.46094 8.40234 7.58594L8.38672 7.63281C8.21484 8.12109 7.67578 8.375 7.19141 8.20312C6.70703 8.03125 6.44922 7.49219 6.62109 7.00781L6.63672 6.96094L6.63281 6.95703ZM8.75 14.25C8.75 13.9185 8.8817 13.6005 9.11612 13.3661C9.35054 13.1317 9.66848 13 10 13C10.3315 13 10.6495 13.1317 10.8839 13.3661C11.1183 13.6005 11.25 13.9185 11.25 14.25C11.25 14.5815 11.1183 14.8995 10.8839 15.1339C10.6495 15.3683 10.3315 15.5 10 15.5C9.66848 15.5 9.35054 15.3683 9.11612 15.1339C8.8817 14.8995 8.75 14.5815 8.75 14.25Z" fill="#3B82F6"/>
</g>
<defs>
<clipPath id="clip0_1525_10126">
<path d="M0 0.5H20V20.5H0V0.5Z" fill="white"/>
</clipPath>
</defs>
</svg>
