<svg width="46" height="46" viewBox="0 0 46 46" fill="none" xmlns="http://www.w3.org/2000/svg">
<path d="M23 41.7573C22.3448 41.7675 21.6983 41.6059 21.125 41.2885L20.5625 40.9698C16.1811 38.491 12.5361 34.8938 9.99964 30.5455C7.46316 26.1973 6.1261 21.2538 6.125 16.2198V15.9573C6.11905 15.2933 6.28951 14.6397 6.61894 14.0632C6.94836 13.4867 7.42495 13.008 8 12.676L21.125 5.28854C21.6951 4.95941 22.3417 4.78613 23 4.78613C23.6583 4.78613 24.3049 4.95941 24.875 5.28854L38 12.676C38.575 13.008 39.0516 13.4867 39.3811 14.0632C39.7105 14.6397 39.8809 15.2933 39.875 15.9573V16.2198C39.8701 21.2575 38.5274 26.2035 35.9842 30.5521C33.4409 34.9007 29.7883 38.4958 25.4 40.9698L24.8375 41.2885C24.2753 41.5996 23.6425 41.761 23 41.7573ZM23 8.56979L9.875 15.9573V16.2198C9.87815 20.5906 11.0431 24.882 13.2506 28.6544C15.458 32.4269 18.6286 35.5447 22.4375 37.6885L23 38.0073L23.5625 37.6885C27.3714 35.5447 30.542 32.4269 32.7494 28.6544C34.9569 24.882 36.1218 20.5906 36.125 16.2198V15.9573L23 8.56979Z" fill="url(#paint0_linear_838_7083)"/>
<defs>
<linearGradient id="paint0_linear_838_7083" x1="23" y1="4.78613" x2="23" y2="41.7577" gradientUnits="userSpaceOnUse">
<stop stop-color="#2563EB"/>
<stop offset="1" stop-color="#1D4ED8"/>
</linearGradient>
</defs>
</svg>
