<svg width="14" height="15" viewBox="0 0 14 15" fill="none" xmlns="http://www.w3.org/2000/svg">
<g clip-path="url(#clip0_1525_10029)">
<path d="M7 2.0625C3.8582 2.0625 1.3125 4.6082 1.3125 7.75V8.84375C1.3125 9.20742 1.01992 9.5 0.65625 9.5C0.292578 9.5 0 9.20742 0 8.84375V7.75C0 3.88359 3.13359 0.75 7 0.75C10.8664 0.75 14 3.88359 14 7.75V11.6902C14 13.0191 12.9227 14.0965 11.591 14.0965L8.575 14.0938C8.34805 14.4848 7.92422 14.75 7.4375 14.75H6.5625C5.83789 14.75 5.25 14.1621 5.25 13.4375C5.25 12.7129 5.83789 12.125 6.5625 12.125H7.4375C7.92422 12.125 8.34805 12.3902 8.575 12.7812L11.5938 12.784C12.198 12.784 12.6875 12.2945 12.6875 11.6902V7.75C12.6875 4.6082 10.1418 2.0625 7 2.0625ZM3.9375 6.4375H4.375C4.85898 6.4375 5.25 6.82852 5.25 7.3125V10.375C5.25 10.859 4.85898 11.25 4.375 11.25H3.9375C2.97227 11.25 2.1875 10.4652 2.1875 9.5V8.1875C2.1875 7.22227 2.97227 6.4375 3.9375 6.4375ZM10.0625 6.4375C11.0277 6.4375 11.8125 7.22227 11.8125 8.1875V9.5C11.8125 10.4652 11.0277 11.25 10.0625 11.25H9.625C9.14102 11.25 8.75 10.859 8.75 10.375V7.3125C8.75 6.82852 9.14102 6.4375 9.625 6.4375H10.0625Z" fill="white"/>
</g>
<defs>
<clipPath id="clip0_1525_10029">
<path d="M0 0.75H14V14.75H0V0.75Z" fill="white"/>
</clipPath>
</defs>
</svg>
