<svg width="23" height="21" viewBox="0 0 23 21" fill="none" xmlns="http://www.w3.org/2000/svg">
<g clip-path="url(#clip0_1525_10003)">
<path d="M2.57812 3C1.19922 3 0.078125 4.12109 0.078125 5.5V8C0.078125 8.34375 0.367188 8.61328 0.691406 8.72656C1.42578 8.98047 1.95312 9.67969 1.95312 10.5C1.95312 11.3203 1.42578 12.0195 0.691406 12.2734C0.367188 12.3867 0.078125 12.6562 0.078125 13V15.5C0.078125 16.8789 1.19922 18 2.57812 18H20.0781C21.457 18 22.5781 16.8789 22.5781 15.5V13C22.5781 12.6562 22.2891 12.3867 21.9648 12.2734C21.2305 12.0195 20.7031 11.3203 20.7031 10.5C20.7031 9.67969 21.2305 8.98047 21.9648 8.72656C22.2891 8.61328 22.5781 8.34375 22.5781 8V5.5C22.5781 4.12109 21.457 3 20.0781 3H2.57812ZM5.07812 7.375V13.625C5.07812 13.9688 5.35938 14.25 5.70312 14.25H16.9531C17.2969 14.25 17.5781 13.9688 17.5781 13.625V7.375C17.5781 7.03125 17.2969 6.75 16.9531 6.75H5.70312C5.35938 6.75 5.07812 7.03125 5.07812 7.375ZM3.82812 6.75C3.82812 6.05859 4.38672 5.5 5.07812 5.5H17.5781C18.2695 5.5 18.8281 6.05859 18.8281 6.75V14.25C18.8281 14.9414 18.2695 15.5 17.5781 15.5H5.07812C4.38672 15.5 3.82812 14.9414 3.82812 14.25V6.75Z" fill="#16A34A"/>
</g>
<defs>
<clipPath id="clip0_1525_10003">
<path d="M0.078125 0.5H22.5781V20.5H0.078125V0.5Z" fill="white"/>
</clipPath>
</defs>
</svg>
