<svg width="20" height="20" viewBox="0 0 20 20" fill="none" xmlns="http://www.w3.org/2000/svg">
<path d="M17.4993 11.6666C16.9993 11.6666 16.666 12 16.666 12.5V15.8333C16.666 16.3333 16.3327 16.6666 15.8327 16.6666H4.16602C3.66602 16.6666 3.33268 16.3333 3.33268 15.8333V12.5C3.33268 12 2.99935 11.6666 2.49935 11.6666C1.99935 11.6666 1.66602 12 1.66602 12.5V15.8333C1.66602 17.25 2.74935 18.3333 4.16602 18.3333H15.8327C17.2493 18.3333 18.3327 17.25 18.3327 15.8333V12.5C18.3327 12 17.9993 11.6666 17.4993 11.6666ZM7.24935 6.41663L9.16602 4.49996V12.5C9.16602 13 9.49935 13.3333 9.99935 13.3333C10.4993 13.3333 10.8327 13 10.8327 12.5V4.49996L12.7493 6.41663C13.0827 6.74996 13.5827 6.74996 13.916 6.41663C14.2493 6.08329 14.2493 5.58329 13.916 5.24996L10.5827 1.91663C10.2493 1.58329 9.74935 1.58329 9.41602 1.91663L6.08268 5.24996C5.74935 5.58329 5.74935 6.08329 6.08268 6.41663C6.41602 6.74996 6.91602 6.74996 7.24935 6.41663Z" fill="#667085"/>
</svg>
