<svg width="1440" height="839" viewBox="0 0 1440 839" fill="none" xmlns="http://www.w3.org/2000/svg">
<mask id="mask0_2_42650" style="mask-type:alpha" maskUnits="userSpaceOnUse" x="0" y="0" width="1440" height="839">
<rect width="1440" height="839" fill="url(#paint0_radial_2_42650)"/>
</mask>
<g mask="url(#mask0_2_42650)">
<g opacity="0.35">
<rect x="-7" y="0.5" width="96" height="96" rx="11.5" stroke="#D4D4D4"/>
<rect x="90" y="0.5" width="96" height="96" rx="11.5" fill="#FAFAFA" stroke="#D4D4D4"/>
<rect x="187" y="0.5" width="96" height="96" rx="11.5" fill="#FAFAFA" stroke="#D4D4D4"/>
<rect x="284" y="0.5" width="96" height="96" rx="11.5" fill="#FAFAFA" stroke="#D4D4D4"/>
<rect x="381" y="0.5" width="96" height="96" rx="11.5" stroke="#D4D4D4"/>
<rect x="478" y="0.5" width="96" height="96" rx="11.5" fill="#FAFAFA" stroke="#D4D4D4"/>
<rect x="575" y="0.5" width="96" height="96" rx="11.5" fill="#FAFAFA" stroke="#D4D4D4"/>
<rect x="672" y="0.5" width="96" height="96" rx="11.5" fill="#FAFAFA" stroke="#D4D4D4"/>
<rect x="769" y="0.5" width="96" height="96" rx="11.5" fill="#FAFAFA" stroke="#D4D4D4"/>
<rect x="866" y="0.5" width="96" height="96" rx="11.5" fill="#FAFAFA" stroke="#D4D4D4"/>
<rect x="963" y="0.5" width="96" height="96" rx="11.5" fill="#FAFAFA" stroke="#D4D4D4"/>
<rect x="1060" y="0.5" width="96" height="96" rx="11.5" fill="#FAFAFA" stroke="#D4D4D4"/>
<rect x="1157" y="0.5" width="96" height="96" rx="11.5" fill="#FAFAFA" stroke="#D4D4D4"/>
<rect x="1254" y="0.5" width="96" height="96" rx="11.5" stroke="#D4D4D4"/>
<rect x="1351" y="0.5" width="96" height="96" rx="11.5" fill="#FAFAFA" stroke="#D4D4D4"/>
<rect x="-7" y="97.5" width="96" height="96" rx="11.5" fill="#FAFAFA" stroke="#D4D4D4"/>
<rect x="90" y="97.5" width="96" height="96" rx="11.5" fill="#FAFAFA" stroke="#D4D4D4"/>
<rect x="187" y="97.5" width="96" height="96" rx="11.5" fill="#FAFAFA" stroke="#D4D4D4"/>
<rect x="284" y="97.5" width="96" height="96" rx="11.5" fill="#FAFAFA" stroke="#D4D4D4"/>
<rect x="381" y="97.5" width="96" height="96" rx="11.5" fill="#FAFAFA" stroke="#D4D4D4"/>
<rect x="478" y="97.5" width="96" height="96" rx="11.5" fill="#FAFAFA" stroke="#D4D4D4"/>
<rect x="575" y="97.5" width="96" height="96" rx="11.5" fill="#FAFAFA" stroke="#D4D4D4"/>
<rect x="672" y="97.5" width="96" height="96" rx="11.5" stroke="#D4D4D4"/>
<rect x="769" y="97.5" width="96" height="96" rx="11.5" fill="#FAFAFA" stroke="#D4D4D4"/>
<rect x="866" y="97.5" width="96" height="96" rx="11.5" fill="#FAFAFA" stroke="#D4D4D4"/>
<rect x="963" y="97.5" width="96" height="96" rx="11.5" fill="#FAFAFA" stroke="#D4D4D4"/>
<rect x="1060" y="97.5" width="96" height="96" rx="11.5" stroke="#D4D4D4"/>
<rect x="1157" y="97.5" width="96" height="96" rx="11.5" fill="#FAFAFA" stroke="#D4D4D4"/>
<rect x="1254" y="97.5" width="96" height="96" rx="11.5" fill="#FAFAFA" stroke="#D4D4D4"/>
<rect x="1351" y="97.5" width="96" height="96" rx="11.5" fill="#FAFAFA" stroke="#D4D4D4"/>
<rect x="-7" y="194.5" width="96" height="96" rx="11.5" fill="#FAFAFA" stroke="#D4D4D4"/>
<rect x="90" y="194.5" width="96" height="96" rx="11.5" fill="#FAFAFA" stroke="#D4D4D4"/>
<rect x="187" y="194.5" width="96" height="96" rx="11.5" stroke="#D4D4D4"/>
<rect x="284" y="194.5" width="96" height="96" rx="11.5" fill="#FAFAFA" stroke="#D4D4D4"/>
<rect x="381" y="194.5" width="96" height="96" rx="11.5" fill="#FAFAFA" stroke="#D4D4D4"/>
<rect x="478" y="194.5" width="96" height="96" rx="11.5" fill="#FAFAFA" stroke="#D4D4D4"/>
<rect x="575" y="194.5" width="96" height="96" rx="11.5" fill="#FAFAFA" stroke="#D4D4D4"/>
<rect x="672" y="194.5" width="96" height="96" rx="11.5" fill="#FAFAFA" stroke="#D4D4D4"/>
<rect x="769" y="194.5" width="96" height="96" rx="11.5" stroke="#D4D4D4"/>
<rect x="866" y="194.5" width="96" height="96" rx="11.5" fill="#FAFAFA" stroke="#D4D4D4"/>
<rect x="963" y="194.5" width="96" height="96" rx="11.5" fill="#FAFAFA" stroke="#D4D4D4"/>
<rect x="1060" y="194.5" width="96" height="96" rx="11.5" fill="#FAFAFA" stroke="#D4D4D4"/>
<rect x="1157" y="194.5" width="96" height="96" rx="11.5" fill="#FAFAFA" stroke="#D4D4D4"/>
<rect x="1254" y="194.5" width="96" height="96" rx="11.5" fill="#FAFAFA" stroke="#D4D4D4"/>
<rect x="1351" y="194.5" width="96" height="96" rx="11.5" fill="#FAFAFA" stroke="#D4D4D4"/>
<rect x="-7" y="291.5" width="96" height="96" rx="11.5" fill="#FAFAFA" stroke="#D4D4D4"/>
<rect x="90" y="291.5" width="96" height="96" rx="11.5" fill="#FAFAFA" stroke="#D4D4D4"/>
<rect x="187" y="291.5" width="96" height="96" rx="11.5" fill="#FAFAFA" stroke="#D4D4D4"/>
<rect x="284" y="291.5" width="96" height="96" rx="11.5" fill="#FAFAFA" stroke="#D4D4D4"/>
<rect x="381" y="291.5" width="96" height="96" rx="11.5" fill="#FAFAFA" stroke="#D4D4D4"/>
<rect x="478" y="291.5" width="96" height="96" rx="11.5" fill="#FAFAFA" stroke="#D4D4D4"/>
<rect x="575" y="291.5" width="96" height="96" rx="11.5" fill="#FAFAFA" stroke="#D4D4D4"/>
<rect x="672" y="291.5" width="96" height="96" rx="11.5" fill="#FAFAFA" stroke="#D4D4D4"/>
<rect x="769" y="291.5" width="96" height="96" rx="11.5" fill="#FAFAFA" stroke="#D4D4D4"/>
<rect x="866" y="291.5" width="96" height="96" rx="11.5" fill="#FAFAFA" stroke="#D4D4D4"/>
<rect x="963" y="291.5" width="96" height="96" rx="11.5" fill="#FAFAFA" stroke="#D4D4D4"/>
<rect x="1060" y="291.5" width="96" height="96" rx="11.5" fill="#FAFAFA" stroke="#D4D4D4"/>
<rect x="1157" y="291.5" width="96" height="96" rx="11.5" stroke="#D4D4D4"/>
<rect x="1254" y="291.5" width="96" height="96" rx="11.5" fill="#FAFAFA" stroke="#D4D4D4"/>
<rect x="1351" y="291.5" width="96" height="96" rx="11.5" fill="#FAFAFA" stroke="#D4D4D4"/>
<rect x="-7" y="388.5" width="96" height="96" rx="11.5" fill="#FAFAFA" stroke="#D4D4D4"/>
<rect x="90" y="388.5" width="96" height="96" rx="11.5" fill="#FAFAFA" stroke="#D4D4D4"/>
<rect x="187" y="388.5" width="96" height="96" rx="11.5" fill="#FAFAFA" stroke="#D4D4D4"/>
<rect x="284" y="388.5" width="96" height="96" rx="11.5" fill="#FAFAFA" stroke="#D4D4D4"/>
<rect x="381" y="388.5" width="96" height="96" rx="11.5" fill="#FAFAFA" stroke="#D4D4D4"/>
<rect x="478" y="388.5" width="96" height="96" rx="11.5" fill="#FAFAFA" stroke="#D4D4D4"/>
<rect x="575" y="388.5" width="96" height="96" rx="11.5" stroke="#D4D4D4"/>
<rect x="672" y="388.5" width="96" height="96" rx="11.5" fill="#FAFAFA" stroke="#D4D4D4"/>
<rect x="769" y="388.5" width="96" height="96" rx="11.5" fill="#FAFAFA" stroke="#D4D4D4"/>
<rect x="866" y="388.5" width="96" height="96" rx="11.5" fill="#FAFAFA" stroke="#D4D4D4"/>
<rect x="963" y="388.5" width="96" height="96" rx="11.5" stroke="#D4D4D4"/>
<rect x="1060" y="388.5" width="96" height="96" rx="11.5" fill="#FAFAFA" stroke="#D4D4D4"/>
<rect x="1157" y="388.5" width="96" height="96" rx="11.5" fill="#FAFAFA" stroke="#D4D4D4"/>
<rect x="1254" y="388.5" width="96" height="96" rx="11.5" fill="#FAFAFA" stroke="#D4D4D4"/>
<rect x="1351" y="388.5" width="96" height="96" rx="11.5" fill="#FAFAFA" stroke="#D4D4D4"/>
<rect x="-7" y="485.5" width="96" height="96" rx="11.5" fill="#FAFAFA" stroke="#D4D4D4"/>
<rect x="90" y="485.5" width="96" height="96" rx="11.5" fill="#FAFAFA" stroke="#D4D4D4"/>
<rect x="187" y="485.5" width="96" height="96" rx="11.5" fill="#FAFAFA" stroke="#D4D4D4"/>
<rect x="284" y="485.5" width="96" height="96" rx="11.5" fill="#FAFAFA" stroke="#D4D4D4"/>
<rect x="381" y="485.5" width="96" height="96" rx="11.5" fill="#FAFAFA" stroke="#D4D4D4"/>
<rect x="478" y="485.5" width="96" height="96" rx="11.5" fill="#FAFAFA" stroke="#D4D4D4"/>
<rect x="575" y="485.5" width="96" height="96" rx="11.5" fill="#FAFAFA" stroke="#D4D4D4"/>
<rect x="672" y="485.5" width="96" height="96" rx="11.5" fill="#FAFAFA" stroke="#D4D4D4"/>
<rect x="769" y="485.5" width="96" height="96" rx="11.5" fill="#FAFAFA" stroke="#D4D4D4"/>
<rect x="866" y="485.5" width="96" height="96" rx="11.5" fill="#FAFAFA" stroke="#D4D4D4"/>
<rect x="963" y="485.5" width="96" height="96" rx="11.5" fill="#FAFAFA" stroke="#D4D4D4"/>
<rect x="1060" y="485.5" width="96" height="96" rx="11.5" fill="#FAFAFA" stroke="#D4D4D4"/>
<rect x="1157" y="485.5" width="96" height="96" rx="11.5" fill="#FAFAFA" stroke="#D4D4D4"/>
<rect x="1254" y="485.5" width="96" height="96" rx="11.5" stroke="#D4D4D4"/>
<rect x="1351" y="485.5" width="96" height="96" rx="11.5" fill="#FAFAFA" stroke="#D4D4D4"/>
<rect x="-7" y="582.5" width="96" height="96" rx="11.5" fill="#FAFAFA" stroke="#D4D4D4"/>
<rect x="90" y="582.5" width="96" height="96" rx="11.5" stroke="#D4D4D4"/>
<rect x="187" y="582.5" width="96" height="96" rx="11.5" fill="#FAFAFA" stroke="#D4D4D4"/>
<rect x="284" y="582.5" width="96" height="96" rx="11.5" fill="#FAFAFA" stroke="#D4D4D4"/>
<rect x="381" y="582.5" width="96" height="96" rx="11.5" fill="#FAFAFA" stroke="#D4D4D4"/>
<rect x="478" y="582.5" width="96" height="96" rx="11.5" fill="#FAFAFA" stroke="#D4D4D4"/>
<rect x="575" y="582.5" width="96" height="96" rx="11.5" fill="#FAFAFA" stroke="#D4D4D4"/>
<rect x="672" y="582.5" width="96" height="96" rx="11.5" stroke="#D4D4D4"/>
<rect x="769" y="582.5" width="96" height="96" rx="11.5" fill="#FAFAFA" stroke="#D4D4D4"/>
<rect x="866" y="582.5" width="96" height="96" rx="11.5" fill="#FAFAFA" stroke="#D4D4D4"/>
<rect x="963" y="582.5" width="96" height="96" rx="11.5" fill="#FAFAFA" stroke="#D4D4D4"/>
<rect x="1060" y="582.5" width="96" height="96" rx="11.5" fill="#FAFAFA" stroke="#D4D4D4"/>
<rect x="1157" y="582.5" width="96" height="96" rx="11.5" fill="#FAFAFA" stroke="#D4D4D4"/>
<rect x="1254" y="582.5" width="96" height="96" rx="11.5" fill="#FAFAFA" stroke="#D4D4D4"/>
<rect x="1351" y="582.5" width="96" height="96" rx="11.5" fill="#FAFAFA" stroke="#D4D4D4"/>
<rect x="-7" y="679.5" width="96" height="96" rx="11.5" fill="#FAFAFA" stroke="#D4D4D4"/>
<rect x="90" y="679.5" width="96" height="96" rx="11.5" fill="#FAFAFA" stroke="#D4D4D4"/>
<rect x="187" y="679.5" width="96" height="96" rx="11.5" fill="#FAFAFA" stroke="#D4D4D4"/>
<rect x="284" y="679.5" width="96" height="96" rx="11.5" fill="#FAFAFA" stroke="#D4D4D4"/>
<rect x="381" y="679.5" width="96" height="96" rx="11.5" fill="#FAFAFA" stroke="#D4D4D4"/>
<rect x="478" y="679.5" width="96" height="96" rx="11.5" stroke="#D4D4D4"/>
<rect x="575" y="679.5" width="96" height="96" rx="11.5" fill="#FAFAFA" stroke="#D4D4D4"/>
<rect x="672" y="679.5" width="96" height="96" rx="11.5" fill="#FAFAFA" stroke="#D4D4D4"/>
<rect x="769" y="679.5" width="96" height="96" rx="11.5" fill="#FAFAFA" stroke="#D4D4D4"/>
<rect x="866" y="679.5" width="96" height="96" rx="11.5" fill="#FAFAFA" stroke="#D4D4D4"/>
<rect x="963" y="679.5" width="96" height="96" rx="11.5" fill="#FAFAFA" stroke="#D4D4D4"/>
<rect x="1060" y="679.5" width="96" height="96" rx="11.5" fill="#FAFAFA" stroke="#D4D4D4"/>
<rect x="1157" y="679.5" width="96" height="96" rx="11.5" stroke="#D4D4D4"/>
<rect x="1254" y="679.5" width="96" height="96" rx="11.5" fill="#FAFAFA" stroke="#D4D4D4"/>
<rect x="1351" y="679.5" width="96" height="96" rx="11.5" fill="#FAFAFA" stroke="#D4D4D4"/>
<rect x="-7" y="776.5" width="96" height="96" rx="11.5" fill="#FAFAFA" stroke="#D4D4D4"/>
<rect x="90" y="776.5" width="96" height="96" rx="11.5" fill="#FAFAFA" stroke="#D4D4D4"/>
<rect x="187" y="776.5" width="96" height="96" rx="11.5" fill="#FAFAFA" stroke="#D4D4D4"/>
<rect x="284" y="776.5" width="96" height="96" rx="11.5" stroke="#D4D4D4"/>
<rect x="381" y="776.5" width="96" height="96" rx="11.5" fill="#FAFAFA" stroke="#D4D4D4"/>
<rect x="478" y="776.5" width="96" height="96" rx="11.5" fill="#FAFAFA" stroke="#D4D4D4"/>
<rect x="575" y="776.5" width="96" height="96" rx="11.5" fill="#FAFAFA" stroke="#D4D4D4"/>
<rect x="672" y="776.5" width="96" height="96" rx="11.5" fill="#FAFAFA" stroke="#D4D4D4"/>
<rect x="769" y="776.5" width="96" height="96" rx="11.5" fill="#FAFAFA" stroke="#D4D4D4"/>
<rect x="866" y="776.5" width="96" height="96" rx="11.5" stroke="#D4D4D4"/>
<rect x="963" y="776.5" width="96" height="96" rx="11.5" fill="#FAFAFA" stroke="#D4D4D4"/>
<rect x="1060" y="776.5" width="96" height="96" rx="11.5" fill="#FAFAFA" stroke="#D4D4D4"/>
<rect x="1157" y="776.5" width="96" height="96" rx="11.5" fill="#FAFAFA" stroke="#D4D4D4"/>
<rect x="1254" y="776.5" width="96" height="96" rx="11.5" fill="#FAFAFA" stroke="#D4D4D4"/>
<rect x="1351" y="776.5" width="96" height="96" rx="11.5" fill="#FAFAFA" stroke="#D4D4D4"/>
</g>
</g>
<defs>
<radialGradient id="paint0_radial_2_42650" cx="0" cy="0" r="1" gradientUnits="userSpaceOnUse" gradientTransform="translate(720 419.5) rotate(90) scale(419.5 720)">
<stop stop-color="white"/>
<stop offset="0.97" stop-color="white" stop-opacity="0"/>
</radialGradient>
</defs>
</svg>
